<svg width="84" height="23" viewBox="0 0 84 23" fill="none" xmlns="http://www.w3.org/2000/svg">
<rect width="84" height="23" rx="2" fill="#42257E"/>
<path d="M7.21875 16L6.16406 6.90625H7.24219L7.86328 12.4434L7.94531 13.3633H7.97461L8.0918 12.4434L9.04688 6.90625H10.125L11.2148 12.666L11.3262 13.5449H11.3555L11.4258 12.6602L12.1113 6.90625H13.0371L11.9355 16H10.8164L9.64453 9.83594L9.52148 8.91016H9.49219L9.38086 9.83594L8.32617 16H7.21875Z" fill="#02F0FF"/>
<path d="M19.5586 15.5664C18.6875 15.9805 17.8633 16.1875 17.0859 16.1875C16.4961 16.1875 15.9688 16.041 15.5039 15.748C15.0391 15.4551 14.666 15.0371 14.3848 14.4941C14.1074 13.9473 13.9688 13.3633 13.9688 12.7422C13.9688 12.1445 14.1016 11.5703 14.3672 11.0195C14.6328 10.4688 15.0039 10.041 15.4805 9.73633C15.957 9.42773 16.4883 9.27344 17.0742 9.27344C17.8516 9.27344 18.4746 9.55078 18.9434 10.1055C19.416 10.6602 19.6523 11.5156 19.6523 12.6719V12.9062H15.1406C15.1406 13.3594 15.2344 13.7734 15.4219 14.1484C15.6133 14.5234 15.8633 14.8047 16.1719 14.9922C16.4805 15.1797 16.832 15.2734 17.2266 15.2734C17.9297 15.2734 18.707 15.0391 19.5586 14.5703V15.5664ZM15.2051 12.0918H18.4688V11.9336C18.4688 11.3984 18.3379 10.9727 18.0762 10.6562C17.8145 10.3398 17.4648 10.1816 17.0273 10.1816C16.5859 10.1816 16.2031 10.3438 15.8789 10.668C15.5586 10.9883 15.334 11.4629 15.2051 12.0918Z" fill="#02F0FF"/>
<path d="M21.334 15.8066V14.6934C22.2715 15.1387 23.123 15.3613 23.8887 15.3613C24.209 15.3613 24.5156 15.3008 24.8086 15.1797C25.1016 15.0547 25.3223 14.877 25.4707 14.6465C25.623 14.416 25.6992 14.166 25.6992 13.8965C25.6992 13.5801 25.5957 13.2852 25.3887 13.0117C25.1816 12.7344 24.793 12.4297 24.2227 12.0977L23.625 11.752L23.0215 11.4062C21.959 10.7773 21.4277 9.99609 21.4277 9.0625C21.4277 8.37891 21.6641 7.80469 22.1367 7.33984C22.6133 6.87109 23.3555 6.63672 24.3633 6.63672C25.0117 6.63672 25.6387 6.73047 26.2441 6.91797V7.93164C25.5762 7.67383 24.9258 7.54492 24.293 7.54492C23.7891 7.54492 23.3809 7.67773 23.0684 7.94336C22.7598 8.20898 22.6055 8.5293 22.6055 8.9043C22.6055 9.27539 22.7246 9.58398 22.9629 9.83008C23.2012 10.0762 23.5059 10.3027 23.877 10.5098L24.334 10.7852L24.9023 11.1309L25.3828 11.4121C26.3789 12.0215 26.877 12.7871 26.877 13.709C26.877 14.4121 26.6211 15.0156 26.1094 15.5195C25.5977 16.0234 24.7773 16.2754 23.6484 16.2754C23.2891 16.2754 22.9453 16.2441 22.6172 16.1816C22.293 16.123 21.8652 15.998 21.334 15.8066Z" fill="#02F0FF"/>
<path d="M28.5293 16V6.54297H29.6191V10.8848C29.9316 10.3809 30.3086 9.98633 30.75 9.70117C31.1914 9.41602 31.6328 9.27344 32.0742 9.27344C32.4453 9.27344 32.7832 9.36914 33.0879 9.56055C33.3965 9.74805 33.6113 9.97656 33.7324 10.2461C33.8301 10.4531 33.8965 10.6738 33.9316 10.9082C33.9668 11.1387 33.9844 11.6172 33.9844 12.3438V16H32.8945V12.209C32.8945 11.5801 32.8633 11.166 32.8008 10.9668C32.7422 10.7637 32.6309 10.5977 32.4668 10.4688C32.3066 10.3398 32.1309 10.2754 31.9395 10.2754C31.5566 10.2754 31.1445 10.457 30.7031 10.8203C30.2656 11.1836 29.9043 11.6387 29.6191 12.1855V16H28.5293Z" fill="#02F0FF"/>
<path d="M38.4316 16.1816C37.4941 16.1816 36.7441 15.8555 36.1816 15.2031C35.6191 14.5469 35.3379 13.7207 35.3379 12.7246C35.3379 11.7285 35.6191 10.9043 36.1816 10.252C36.7441 9.59961 37.4941 9.27344 38.4316 9.27344C39.3652 9.27344 40.1133 9.59961 40.6758 10.252C41.2383 10.9043 41.5195 11.7285 41.5195 12.7246C41.5195 13.7207 41.2383 14.5469 40.6758 15.2031C40.1133 15.8555 39.3652 16.1816 38.4316 16.1816ZM38.4316 15.2734C39.0137 15.2734 39.4766 15.0469 39.8203 14.5938C40.1641 14.1406 40.3359 13.5176 40.3359 12.7246C40.3359 11.9355 40.1641 11.3145 39.8203 10.8613C39.4766 10.4082 39.0137 10.1816 38.4316 10.1816C37.8457 10.1816 37.3809 10.4082 37.0371 10.8613C36.6934 11.3145 36.5215 11.9355 36.5215 12.7246C36.5215 13.5176 36.6934 14.1406 37.0371 14.5938C37.3809 15.0469 37.8457 15.2734 38.4316 15.2734Z" fill="#02F0FF"/>
<path d="M48.3281 9.45508V16H47.2383V14.5645C46.8867 15.1035 46.4961 15.5078 46.0664 15.7773C45.6367 16.0469 45.207 16.1816 44.7773 16.1816C44.3945 16.1816 44.043 16.0801 43.7227 15.877C43.4062 15.6699 43.1855 15.4004 43.0605 15.0684C42.9355 14.7324 42.873 14.0801 42.873 13.1113V9.45508H43.9629V13.2461C43.9629 13.875 43.9922 14.291 44.0508 14.4941C44.1133 14.6934 44.2246 14.8574 44.3848 14.9863C44.5488 15.1152 44.7246 15.1797 44.9121 15.1797C45.2949 15.1797 45.7051 15 46.1426 14.6406C46.584 14.2773 46.9492 13.8203 47.2383 13.2695V9.45508H48.3281Z" fill="#02F0FF"/>
<path d="M51.9082 16V7.45703H49.9512V6.54297H52.998V15.0918H55.043V16H51.9082Z" fill="#02F0FF"/>
<path d="M61.7285 14.5293C61.3965 15.0762 60.9961 15.4883 60.5273 15.7656C60.0625 16.043 59.6348 16.1816 59.2441 16.1816C58.6973 16.1816 58.2051 15.9453 57.7676 15.4727C57.334 15 57.1172 14.2832 57.1172 13.3223C57.1172 12.5645 57.2617 11.8887 57.5508 11.2949C57.8398 10.6973 58.2266 10.2266 58.7109 9.88281C59.1953 9.53516 59.7949 9.36133 60.5098 9.36133C60.7168 9.36133 61.0293 9.38281 61.4473 9.42578C61.5098 9.43359 61.6035 9.44336 61.7285 9.45508V6.54297H62.8242V16H61.7285V14.5293ZM61.7285 13.2344V10.4277C61.3418 10.3262 60.9824 10.2754 60.6504 10.2754C59.9785 10.2754 59.418 10.5352 58.9688 11.0547C58.5234 11.5742 58.3008 12.2812 58.3008 13.1758C58.3008 13.8242 58.4219 14.3145 58.6641 14.6465C58.9102 14.9746 59.1895 15.1387 59.502 15.1387C59.8418 15.1387 60.2168 14.9668 60.627 14.623C61.0371 14.2793 61.4043 13.8164 61.7285 13.2344Z" fill="#02F0FF"/>
<path d="M67.2539 16.2754C66.9922 16.2754 66.7676 16.1816 66.5801 15.9941C66.3926 15.8066 66.2988 15.582 66.2988 15.3203C66.2988 15.0547 66.3926 14.8301 66.5801 14.6465C66.7715 14.459 66.9961 14.3652 67.2539 14.3652C67.5117 14.3652 67.7344 14.459 67.9219 14.6465C68.1133 14.8301 68.209 15.0547 68.209 15.3203C68.209 15.582 68.1152 15.8066 67.9277 15.9941C67.7402 16.1816 67.5156 16.2754 67.2539 16.2754Z" fill="#02F0FF"/>
<rect x="71" y="4" width="7" height="15" fill="#F40E98"/>
</svg>
